<svg width="24" height="24" viewBox="0 0 24 24" fill="none" xmlns="http://www.w3.org/2000/svg">
  <path
    fill-rule="evenodd"
    clip-rule="evenodd"
    d="M11.991 2.87349C11.991 2.00969 12.9242 1.46815 13.6741 1.89671L20.7508 5.94054C21.5077 6.37303 21.5064 7.46481 20.7484 7.89545L13.5243 12.0001L20.7484 16.1048C21.5064 16.5354 21.5077 17.6272 20.7508 18.0597L13.6741 22.1035C12.9241 22.5321 11.991 21.9905 11.991 21.1267V12.8713L4.68076 17.0248C3.93079 17.4509 3 16.9093 3 16.0467V7.95353C3 7.09095 3.93079 6.54927 4.68076 6.97539L11.991 11.1289V2.87349ZM10.4879 12.0001L4.5 8.5979V15.4023L10.4879 12.0001ZM13.491 13.7064L19.4352 17.0838L13.491 20.4805V13.7064ZM13.491 10.2938V3.51968L19.4352 6.91638L13.491 10.2938Z"
    fill="#222222"
  />
</svg>
