<svg xmlns="http://www.w3.org/2000/svg" viewBox="0 0 240 240" role="img" aria-label="Telegram">
  <defs>
    <linearGradient id="tg-bg" x1="0" x2="1" y1="0" y2="1">
      <stop offset="0%" stop-color="#37BBFE" />
      <stop offset="100%" stop-color="#007DBB" />
    </linearGradient>
  </defs>
  <circle cx="120" cy="120" r="116" fill="url(#tg-bg)" />
  <path
    fill="#fff"
    d="M176.6 69.6 54.2 116.8c-8.4 3.4-8.3 8.1-1.5 10.2l31.4 9.8 12.2 38.1c1.5 4.1.8 5.8 5.1 5.8 3.3 0 4.8-1.5 6.6-3.3l15.2-14.8 31.6 23.3c5.8 3.2 9.9 1.6 11.3-5.4l22.3-105.1c2-8.5-3.1-12.4-11.8-8.5Zm-85.3 65-6.9 24.3-2.7-22-18.1-5.7 89.2-34.4-61.5 37.8Zm16.4 23.9-10.3-8.1 50.9-49.1-40.6 57.2Z"
  />
</svg>
