<svg xmlns="http://www.w3.org/2000/svg" viewBox="0 0 240 240" role="img" aria-label="WhatsApp">
  <circle cx="120" cy="120" r="116" fill="#25D366" />
  <path
    fill="#fff"
    d="M120.1 52c-36.9 0-66.8 29.8-66.8 66.6 0 11.8 3.1 23.3 9.1 33.4L52 189l38.2-10c9.7 5.3 20.6 8.1 31.4 8.1h.1c36.8 0 66.7-29.8 66.7-66.6 0-17.8-6.9-34.6-19.4-47.2A66.2 66.2 0 0 0 120.1 52Zm0 122.1h-.1a55.4 55.4 0 0 1-28.2-7.7l-2-.1-22.7 6 6.1-22.1-1.3-2.2a55.2 55.2 0 0 1-8.5-29.4c0-30.6 25-55.5 55.7-55.5 14.9 0 28.8 5.8 39.2 16.2a55 55 0 0 1 16.3 39.2c0 30.6-25 55.6-55.5 55.6Zm30.4-41.6c-1.7-.9-10.2-5-11.8-5.6-1.6-.6-2.8-.9-4 1-.9 1.7-3.6 5.6-4.5 6.7-.8 1-1.6 1.1-3 .4-8.2-4.1-13.6-7.3-19-16.7-1.4-2.3 1.4-2.2 4.1-7.4.5-1 .2-1.9-.1-2.7-.4-.9-4-9.7-5.5-13.3-1.4-3.3-2.8-2.9-4-.3-1.1 2.2-4.2 4.1-4.2 10 0 5.8 4.3 11.5 4.8 12.3.6.8 8.4 12.9 20.3 18.1 7.5 3.3 10.6 3.6 14.4 3 2.3-.4 7.2-3 8.3-5.9 1-2.9 1-5.4.7-5.9-.2-.6-1.4-.9-3-.1Z"
  />
</svg>
